# xmcd CD database file
#
# Track frame offsets:
#	150
#	2027
#	23895
#	30100
#	51197
#	76722
#	101060
#	114227
#	125010
#	129842
#	156010
#	161972
#	182510
#	245247
#	263085
#	267522
#	289260
#
# Disc length: 4086 seconds
#
# Revision: 2
# Processed by: cddbd v1.5.2PL0 Copyright (c) Steve Scherf et al.
# Submitted via: CDex 1.70beta3
#
DISCID=de0ff411
DTITLE=宇宙英雄物語 - 宇宙英雄物語
DYEAR=1989
DGENRE=Anime
TTITLE0=「Opening」
TTITLE1=MIO/FUTURE-RETRO HERO
TTITLE2=「星詠み号、宇宙へ」
TTITLE3=田中公平/FORTUNER
TTITLE4=「地上最大の決戦、アゼルＶＳ咲美」
TTITLE5=富沢美智恵/魔法の爆弾アゼル
TTITLE6=「外食王あらわる！」
TTITLE7=岩男潤子他/宇宙のすたーらーく
TTITLE8=「クォーターメン集合」
TTITLE9=大野雄二/QUARTER MEN
TTITLE10=「悪の華」
TTITLE11=小杉十郎太/ドラゴンの牙
TTITLE12=「ロジャー対星海王」
TTITLE13=宮内タカユキ/Astronauts～宇宙飛行士のバラード
TTITLE14=「そして、咲美」
TTITLE15=林原めぐみ/星の涙ポ・ロ・ロ・ン…
TTITLE16=モンニオ・エリコーネJr/宇宙英雄賛歌
EXTD=YEAR: 1989
EXTT0=
EXTT1=
EXTT2=
EXTT3=
EXTT4=
EXTT5=
EXTT6=
EXTT7=
EXTT8=
EXTT9=
EXTT10=
EXTT11=
EXTT12=
EXTT13=
EXTT14=
EXTT15=
EXTT16=
PLAYORDER=
